<?xml version="1.0" encoding="utf-8"?><!-- Generator: Adobe Illustrator 21.1.0, SVG Export Plug-In . SVG Version: 6.00 Build 0)  --><svg xmlns="http://www.w3.org/2000/svg" xmlns:xlink="http://www.w3.org/1999/xlink" version="1.1" id="Ebene_1" x="0px" y="0px" viewBox="0 0 200 30" style="enable-background:new 0 0 200 30;" xml:space="preserve">
<style type="text/css">
	.st0{fill:#63AE26;}
</style>
<path class="st0" d="M51.8,12.5c0-2.8-2.1-5.1-4.8-5.4c-0.3,0-0.5,0.2-0.5,0.5l0,10.9c0,3.3-2.7,6-6,6c-3.3,0-6-2.7-6-6c0,0,0-6,0-6  c0-2.8-2.1-5.1-4.8-5.4c-0.3,0-0.5,0.2-0.5,0.5l0,10.9c0,3.3-2.7,6-6,6c-3.3,0-6-2.7-6-6s2.7-6,6-6c2,0,3.8,1,4.9,2.5V8.1  C26.3,7.4,24.7,7,22.9,7c-2.2,0-4.3,0.6-6,1.7V5.7c0-2.8-2.1-5.1-4.8-5.4c-0.3,0-0.5,0.2-0.5,0.5l0,17.7c0,6.3,5.1,11.4,11.4,11.4  c3.5,0,6.6-1.6,8.7-4.1c2.1,2.5,5.2,4.1,8.7,4.1c2.6,0,5.1-0.9,7-2.4c0.9,1.3,2.3,2.2,3.9,2.4c0.3,0,0.5-0.2,0.5-0.5V12.5z"/>
</svg>